# xmcd CD database file
#
# Track frame offsets:
#	150
#	14105
#	28815
#	42105
#	57752
#	71980
#	86525
#	101622
#	115254
#	130240
#	144270
#	158420
#	172770
#	186767
#	201187
#	215057
#	228170
#	242840
#	256320
#	270150
#	283875
#	296497
#	308710
#
# Disc length: 4309 seconds
#
# Revision: 0
# Processed by: cddbd v1.5.2PL0 Copyright (c) Steve Scherf et al.
# Submitted via: CDex 1.79
#
DISCID=4910d317
DTITLE=Duke Ellington - Vintage Hit Singles Collection Disc Two
DYEAR=2000
DGENRE=Jazz
TTITLE0=I'm Satisfied
TTITLE1=In The Shade Of The Old Apple Tree
TTITLE2=Daybreak Express
TTITLE3=Cocktails For Two
TTITLE4=Moonglow
TTITLE5=Solitude
TTITLE6=Saddest Tale
TTITLE7=Merry-Go-Round
TTITLE8=In a Sentimental Mood
TTITLE9=Accent On Youth
TTITLE10=Cotton
TTITLE11=Isn't Love The Strangest Thing?
TTITLE12=Love Is Like a Cigarette
TTITLE13=Clarinet Lament (Barney's Concerto)
TTITLE14=Echoes Of Harlem (Cootie's Concerto)
TTITLE15=Oh, Babe! Maybe Someday
TTITLE16=Jazz Lips
TTITLE17=Yearning for Love (Lawrence's Concerto)
TTITLE18=New East St Louis Toodle-oo
TTITLE19=There's A Lull In My Life
TTITLE20=Scattin' At The Kit-Kat
TTITLE21=Caravan
TTITLE22=Azure
EXTD=YEAR: 2000
EXTT0=
EXTT1=
EXTT2=
EXTT3=
EXTT4=
EXTT5=
EXTT6=
EXTT7=
EXTT8=
EXTT9=
EXTT10=
EXTT11=
EXTT12=
EXTT13=
EXTT14=
EXTT15=
EXTT16=
EXTT17=
EXTT18=
EXTT19=
EXTT20=
EXTT21=
EXTT22=
PLAYORDER=
